# Blender v2.79 (sub 0) OBJ File: 'untitled5.blend'
# www.blender.org
mtllib s3.mtl
o step2.001
v 0.400000 0.996829 -4.000000
v -0.400000 -0.000000 -5.733878
v 0.400000 -0.000000 -5.733878
v -0.400000 -0.000000 -7.332722
v 0.400000 -0.000000 -7.332722
v 0.400000 0.159884 -5.825256
v 0.400000 0.159884 -7.332722
v -0.400000 0.996829 -4.000000
v -0.400000 0.159884 -5.825256
v -0.400000 1.156479 -4.091785
v -0.400000 0.159884 -7.332722
v 0.400000 1.156479 -4.091785
vn 0.0000 -0.8669 0.4984
vn 0.0000 -1.0000 0.0000
vn 1.0000 0.0000 -0.0000
vn -1.0000 0.0000 0.0000
vn 0.0000 0.0000 -1.0000
vn 0.0000 0.8669 -0.4984
vn 0.0000 1.0000 -0.0000
vn 0.0000 0.4984 0.8669
usemtl Material.002
s off
f 1//1 2//1 3//1
f 2//2 4//2 3//2
f 4//2 5//2 3//2
f 6//3 1//3 3//3
f 7//3 6//3 3//3
f 5//3 7//3 3//3
f 1//1 8//1 2//1
f 9//4 4//4 2//4
f 10//4 9//4 2//4
f 8//4 10//4 2//4
f 4//5 11//5 5//5
f 11//5 7//5 5//5
f 9//4 11//4 4//4
f 9//6 10//6 6//6
f 10//6 12//6 6//6
f 7//7 9//7 6//7
f 12//3 1//3 6//3
f 7//7 11//7 9//7
f 12//8 8//8 1//8
f 12//8 10//8 8//8
