# Blender v2.79 (sub 0) OBJ File: 'untitled5.blend'
# www.blender.org
mtllib s1.mtl
o step1_2
v -0.000001 0.176777 3.400000
v -0.353554 0.353553 3.400000
v 0.000000 -0.000000 3.400000
v 0.265164 0.441942 3.400000
v 0.353553 0.353553 3.400000
v -0.353554 0.353553 1.533975
v -0.000001 -0.000000 1.533969
v 0.353553 0.353553 1.533975
v -0.000001 0.176777 1.533975
v -0.265166 0.441942 1.533975
v -0.265166 0.441942 3.400000
v 0.265164 0.441942 1.533975
vn -0.7071 0.7071 0.0000
vn 0.0000 0.0000 1.0000
vn -0.0000 0.0000 -1.0000
vn -0.7071 -0.7071 0.0000
vn 0.7071 0.7071 -0.0000
vn 0.7071 -0.7071 -0.0000
usemtl Material
s off
f 10//1 6//1 2//1 11//1
f 11//2 2//2 3//2 1//2
f 12//3 8//3 7//3 9//3
f 6//4 7//4 3//4 2//4
f 10//3 9//3 7//3
f 6//3 10//3 7//3
f 5//2 4//2 1//2 3//2
f 12//1 9//1 1//1 4//1
f 12//5 4//5 5//5 8//5
f 7//6 8//6 5//6 3//6
f 10//5 11//5 1//5 9//5
