# Blender v2.79 (sub 0) OBJ File: 'untitled3.blend'
# www.blender.org
mtllib total_4.4.mtl
o step2.5
v -0.400000 0.996829 -3.470000
v 0.400000 -0.000000 -0.869183
v -0.400000 -0.000000 -0.869183
v 0.400000 -0.000000 1.529082
v -0.400000 -0.000000 1.529082
v -0.400000 0.159884 -0.732116
v -0.400000 0.159884 1.529082
v 0.400000 0.996829 -3.470000
v 0.400000 0.159884 -0.732116
v 0.400000 1.156479 -3.332322
v 0.400000 0.159884 1.529082
v -0.400000 1.156479 -3.332322
vn 0.0000 -1.0000 -0.0000
vn 1.0000 -0.0000 0.0000
vn -1.0000 0.0000 0.0000
vn 0.0000 -0.9338 -0.3579
vn 0.0000 0.0000 1.0000
vn 0.0000 0.6531 -0.7573
vn 0.0000 0.9338 0.3579
vn 0.0000 1.0000 0.0000
usemtl Material.012
s off
f 4//1 5//1 3//1 2//1
f 8//2 10//2 9//2 2//2
f 5//3 7//3 6//3 3//3
f 1//4 8//4 2//4 3//4
f 9//2 11//2 4//2 2//2
f 4//5 11//5 5//5
f 11//5 7//5 5//5
f 12//6 10//6 8//6 1//6
f 10//7 12//7 6//7 9//7
f 12//3 1//3 3//3 6//3
f 7//8 11//8 9//8 6//8
o 部件2网格.001
v 0.200000 0.175000 5.133970
v -0.800000 0.175000 5.133970
v 0.200000 0.055000 5.133970
v -0.800000 0.055000 5.133970
v 0.200000 0.055000 1.533970
v -0.800000 0.055000 1.533970
v 0.200000 0.175000 1.533970
v -0.800000 0.175000 1.533970
vn 1.0000 0.0000 -0.0000
vn 0.0000 0.0000 -1.0000
vn 0.0000 0.0000 1.0000
vn -1.0000 0.0000 0.0000
vn 0.0000 -1.0000 -0.0000
vn 0.0000 1.0000 0.0000
usemtl Material.001
s off
f 19//9 13//9 15//9 17//9
f 18//10 20//10 19//10 17//10
f 14//11 16//11 15//11 13//11
f 20//12 18//12 16//12 14//12
f 16//13 18//13 17//13 15//13
f 19//14 20//14 14//14 13//14
o step1_2
v -0.000001 0.176777 7.000000
v -0.353554 0.353553 7.000000
v 0.000000 -0.000000 7.000000
v 0.265164 0.441942 7.000000
v 0.353553 0.353553 7.000000
v -0.353554 0.353553 5.133975
v -0.000001 -0.000000 5.133969
v 0.353553 0.353553 5.133975
v -0.000001 0.176777 5.133975
v -0.265166 0.441942 5.133975
v -0.265166 0.441942 7.000000
v 0.265164 0.441942 5.133975
vn -0.7071 0.7071 0.0000
vn 0.0000 0.0000 1.0000
vn -0.0000 0.0000 -1.0000
vn -0.7071 -0.7071 0.0000
vn 0.7071 0.7071 -0.0000
vn 0.7071 -0.7071 -0.0000
usemtl Material
s off
f 30//15 26//15 22//15 31//15
f 31//16 22//16 23//16 21//16
f 32//17 28//17 27//17 29//17
f 26//18 27//18 23//18 22//18
f 30//17 29//17 27//17
f 26//17 30//17 27//17
f 25//16 24//16 21//16 23//16
f 32//15 29//15 21//15 24//15
f 32//19 24//19 25//19 28//19
f 27//20 28//20 25//20 23//20
f 30//19 31//19 21//19 29//19
o 部件2网格
v 0.500000 1.072772 -3.848144
v -0.500000 1.072772 -3.848144
v 0.500000 1.000000 -3.830000
v -0.500000 1.000000 -3.830000
v 0.500000 0.129081 -7.323064
v -0.500000 0.129081 -7.323064
v 0.500000 0.201853 -7.341208
v -0.500000 0.201853 -7.341208
vn 0.0000 -0.9703 0.2419
vn 0.0000 -0.2419 -0.9703
vn 1.0000 0.0000 -0.0000
vn -1.0000 0.0000 0.0000
vn 0.0000 0.2419 0.9703
vn 0.0000 0.9703 -0.2419
usemtl Material.009
s off
f 36//21 38//21 37//21 35//21
f 38//22 40//22 39//22 37//22
f 39//23 33//23 35//23 37//23
f 40//24 38//24 36//24 34//24
f 34//25 36//25 35//25 33//25
f 39//26 40//26 34//26 33//26
